<?xml version="1.0" encoding="UTF-8" standalone="no"?>
<!-- Created with Inkscape (http://www.inkscape.org/) -->

<svg
   xmlns:dc="http://purl.org/dc/elements/1.1/"
   xmlns:cc="http://creativecommons.org/ns#"
   xmlns:rdf="http://www.w3.org/1999/02/22-rdf-syntax-ns#"
   xmlns:svg="http://www.w3.org/2000/svg"
   xmlns="http://www.w3.org/2000/svg"
   xmlns:sodipodi="http://sodipodi.sourceforge.net/DTD/sodipodi-0.dtd"
   xmlns:inkscape="http://www.inkscape.org/namespaces/inkscape"
   width="107"
   height="96"
   id="svg11252"
   version="1.1"
   inkscape:version="0.48.3.1 r9886"
   sodipodi:docname="four_rtl.svg">
  <metadata
     id="metadata19">
    <rdf:RDF>
      <cc:Work
         rdf:about="">
        <dc:format>image/svg+xml</dc:format>
        <dc:type
           rdf:resource="http://purl.org/dc/dcmitype/StillImage" />
        <dc:title />
      </cc:Work>
    </rdf:RDF>
  </metadata>
  <sodipodi:namedview
     pagecolor="#ffffff"
     bordercolor="#666666"
     borderopacity="0.21960784"
     objecttolerance="10"
     gridtolerance="10"
     guidetolerance="10"
     inkscape:pageopacity="0"
     inkscape:pageshadow="2"
     inkscape:window-width="919"
     inkscape:window-height="585"
     id="namedview17"
     showgrid="true"
     fit-margin-top="0"
     fit-margin-left="0"
     fit-margin-right="0"
     fit-margin-bottom="0"
     showborder="true"
     inkscape:showpageshadow="false"
     inkscape:zoom="2.0000001"
     inkscape:cx="-55.598888"
     inkscape:cy="54.402473"
     inkscape:window-x="258"
     inkscape:window-y="75"
     inkscape:window-maximized="0"
     inkscape:current-layer="svg11252"
     inkscape:snap-global="true"
     inkscape:snap-page="true" />
  <defs
     id="defs11254" />
  <path
     sodipodi:type="arc"
     style="opacity:1;fill:#000000;fill-opacity:1;stroke:none"
     id="path3762-6"
     sodipodi:cx="-14.385203"
     sodipodi:cy="50.281128"
     sodipodi:rx="4.2205434"
     sodipodi:ry="4.839262"
     d="m -10.16466,50.281128 a 4.2205434,4.839262 0 1 1 -8.441087,0 4.2205434,4.839262 0 1 1 8.441087,0 z"
     transform="matrix(-1.0074627,0,0,0.90674613,86.753768,8.4077827)" />
  <path
     sodipodi:type="arc"
     style="opacity:1;fill:#000000;fill-opacity:1;stroke:none"
     id="path3762-6-3"
     sodipodi:cx="-14.385203"
     sodipodi:cy="50.281128"
     sodipodi:rx="4.2205434"
     sodipodi:ry="4.839262"
     d="m -10.16466,50.281128 a 4.2205434,4.839262 0 1 1 -8.441087,0 4.2205434,4.839262 0 1 1 8.441087,0 z"
     transform="matrix(-1.0074627,0,0,0.90674613,86.753768,-3.5922173)" />
  <path
     sodipodi:type="arc"
     style="opacity:1;fill:#000000;fill-opacity:1;stroke:none"
     id="path3762-6-3-1"
     sodipodi:cx="-14.385203"
     sodipodi:cy="50.281128"
     sodipodi:rx="4.2205434"
     sodipodi:ry="4.839262"
     d="m -10.16466,50.281128 a 4.2205434,4.839262 0 1 1 -8.441087,0 4.2205434,4.839262 0 1 1 8.441087,0 z"
     transform="matrix(-1.0074627,0,0,0.90674613,86.753768,-15.592217)" />
  <path
     sodipodi:type="arc"
     style="opacity:1;fill:#000000;fill-opacity:1;stroke:none"
     id="path3762-6-3-0"
     sodipodi:cx="-14.385203"
     sodipodi:cy="50.281128"
     sodipodi:rx="4.2205434"
     sodipodi:ry="4.839262"
     d="m -10.16466,50.281128 a 4.2205434,4.839262 0 1 1 -8.441087,0 4.2205434,4.839262 0 1 1 8.441087,0 z"
     transform="matrix(-1.0074627,0,0,0.90674613,86.753768,20.407783)" />
</svg>
